<!DOCTYPE svg PUBLIC "-//W3C//DTD SVG 1.1//EN" "http://www.w3.org/Graphics/SVG/1.1/DTD/svg11.dtd">

<!-- Uploaded to: SVG Repo, www.svgrepo.com, Transformed by: SVG Repo Mixer Tools -->
<svg fill="#000" height="800px" width="800px" version="1.1" id="Layer_1" xmlns="http://www.w3.org/2000/svg" xmlns:xlink="http://www.w3.org/1999/xlink" viewBox="0 0 512 512" xml:space="preserve" stroke="#000">

<g id="SVGRepo_bgCarrier" stroke-width="0"/>

<g id="SVGRepo_tracerCarrier" stroke-linecap="round" stroke-linejoin="round"/>

<g id="SVGRepo_iconCarrier"> <g> <g> <path d="M188.159,410.43c-15.059,0-27.313,12.252-27.313,27.311v31.77c0,4.94,4.005,8.945,8.945,8.945s8.945-4.005,8.945-8.945 v-11.037h18.845v11.037c0,4.94,4.005,8.945,8.945,8.945s8.945-4.005,8.945-8.945v-31.77 C215.47,422.682,203.218,410.43,188.159,410.43z M197.581,440.583h-18.845v-2.843c0-5.195,4.227-9.422,9.423-9.422 s9.422,4.227,9.422,9.422V440.583z"/> </g> </g> <g> <g> <path d="M138.921,410.429c-4.94,0-8.945,4.005-8.945,8.945v33.81c0,4.07-3.312,7.382-7.382,7.382 c-4.072,0-7.382-3.312-7.382-7.382v-11.406c0-4.94-4.005-8.945-8.945-8.945s-8.945,4.005-8.945,8.945v11.406 c0,4.07-3.312,7.382-7.382,7.382c-4.072,0-7.382-3.312-7.382-7.382v-33.81c0-4.94-4.005-8.945-8.945-8.945 s-8.945,4.005-8.945,8.945v33.81c0,13.935,11.337,25.272,25.272,25.272c6.218,0,11.92-2.258,16.327-5.997 c4.408,3.74,10.109,5.997,16.327,5.997c13.935,0,25.272-11.337,25.272-25.272v-33.81 C147.866,414.434,143.861,410.429,138.921,410.429z"/> </g> </g> <g> <g> <path d="M270.822,410.427c-4.941,0-8.945,4.006-8.945,8.946v19.315l-15.277-24.103c-2.131-3.361-6.228-4.914-10.048-3.802 c-3.822,1.109-6.452,4.611-6.452,8.591v50.137c0,4.94,4.005,8.945,8.945,8.945c4.94,0,8.945-4.005,8.945-8.945v-19.315 l15.277,24.103c1.67,2.635,4.548,4.156,7.555,4.156c0.829,0,1.667-0.116,2.493-0.355c3.822-1.109,6.452-4.611,6.452-8.591v-50.138 C279.767,414.432,275.763,410.427,270.822,410.427z"/> </g> </g> <g> <g> <path d="M381.161,460.566h-12.543v-6.821h8.245c4.941,0,8.945-4.005,8.945-8.945s-4.004-8.945-8.945-8.945h-8.245v-7.537h12.543 c4.941,0,8.945-4.005,8.945-8.945s-4.004-8.945-8.945-8.945h-21.488c-4.941,0-8.945,4.005-8.945,8.945v50.137 c0,4.94,4.004,8.945,8.945,8.945h21.488c4.941,0,8.945-4.005,8.945-8.945C390.105,464.571,386.102,460.566,381.161,460.566z"/> </g> </g> <g> <g> <path d="M333.138,410.429h-33.99c-4.941,0-8.945,4.005-8.945,8.945s4.004,8.945,8.945,8.945h8.05v41.193 c0,4.94,4.004,8.945,8.945,8.945c4.941,0,8.945-4.005,8.945-8.945v-41.193h8.05c4.941,0,8.945-4.005,8.945-8.945 S338.079,410.429,333.138,410.429z"/> </g> </g> <g> <g> <path d="M421.041,410.43H406.61c-4.941,0-8.945,4.005-8.945,8.945v50.137c0,4.939,4.005,8.944,8.945,8.944h14.431 c14.497,0,26.292-11.794,26.292-26.291V436.72C447.333,422.224,435.538,410.43,421.041,410.43z M429.444,452.164 c0,4.632-3.769,8.401-8.402,8.401h-5.486v-32.247h5.486c4.633,0,8.402,3.769,8.402,8.401V452.164z"/> </g> </g> <g> <g> <path d="M468.551,95.91c4.941,0,8.945-4.005,8.945-8.945V8.945c0-4.94-4.004-8.945-8.945-8.945H43.449 c-4.94,0-8.945,4.005-8.945,8.945v494.11c0,4.94,4.005,8.945,8.945,8.945h425.103c4.941,0,8.945-4.005,8.945-8.945V113.203 c0-4.94-4.004-8.945-8.945-8.945c-4.941,0-8.945,4.005-8.945,8.945V494.11H52.393V17.89h407.213v69.075 C459.607,91.906,463.61,95.91,468.551,95.91z"/> </g> </g> <g> <g> <path d="M428.27,41.742H83.729c-4.94,0-8.945,4.005-8.945,8.945v335.474c0,4.94,4.005,8.945,8.945,8.945H428.27 c4.941,0,8.945-4.005,8.945-8.945V50.687C437.215,45.747,433.211,41.742,428.27,41.742z M419.325,377.216h-59.002v-53.284 c0-23.791-10.21-46.501-28.012-62.308c-3.695-3.28-9.347-2.943-12.628,0.75c-3.28,3.694-2.945,9.347,0.75,12.628 c13.981,12.414,22,30.249,22,48.931v53.284H169.572v-53.284c0-25.189,14.692-48.183,37.11-58.988 c14.739,15.633,32.043,24.187,49.309,24.187c18.982,0,38.019-10.313,53.631-29.036c0.054-0.062,0.113-0.116,0.166-0.179 c17.723-21.323,29.174-51.39,29.174-76.596c0-45.751-37.221-82.972-82.971-82.972c-13.193,0-26.324,3.176-37.975,9.183 c-4.39,2.264-6.115,7.659-3.851,12.05c2.264,4.39,7.659,6.115,12.05,3.851c9.257-4.774,19.275-7.194,29.775-7.194 c35.887,0,65.081,29.196,65.081,65.083c0,21.246-9.8,46.773-24.97,65.07c-0.029,0.033-0.06,0.061-0.087,0.094 c-12.182,14.674-26.397,22.756-40.025,22.756c-13.63,0-27.843-8.081-40.027-22.759c-15.213-18.303-25.043-43.881-25.043-65.161 c0-16.225,6.003-31.765,16.901-43.758c3.323-3.657,3.052-9.313-0.605-12.636c-3.657-3.323-9.315-3.051-12.636,0.605 c-13.897,15.294-21.55,35.108-21.55,55.789c0,21.756,8.544,47.121,22.273,67.369c-26.487,14.423-43.621,42.553-43.621,73.244 v53.284H92.674V59.632h326.651V377.216z"/> </g> </g> </g>

</svg>